<svg width="21" height="20" viewBox="0 0 21 20" fill="none" xmlns="http://www.w3.org/2000/svg">
<path d="M2.09318 7.18471C1.862 7.18471 1.67456 6.99727 1.67456 6.76609V4.04508C1.67456 3.8139 1.86196 3.62646 2.09318 3.62646C2.3244 3.62646 2.51179 3.81386 2.51179 4.04508V6.76609C2.51179 6.99731 2.32436 7.18471 2.09318 7.18471Z" fill="white"/>
<path d="M3.76749 7.63686C3.53631 7.63686 3.34888 7.44946 3.34888 7.21824V4.49723C3.34888 4.26605 3.53627 4.07861 3.76749 4.07861C3.99871 4.07861 4.18611 4.26601 4.18611 4.49723V7.21824C4.18611 7.44942 3.99867 7.63686 3.76749 7.63686Z" fill="white"/>
<path d="M5.44205 7.91185C5.21087 7.91185 5.02344 7.72445 5.02344 7.49323V4.77222C5.02344 4.54104 5.21083 4.35361 5.44205 4.35361C5.67323 4.35361 5.86067 4.541 5.86067 4.77222V7.49323C5.86067 7.72445 5.67323 7.91185 5.44205 7.91185Z" fill="white"/>
<path d="M7.11637 8.0764C6.88515 8.0764 6.69775 7.88896 6.69775 7.65778V4.93677C6.69775 4.70555 6.88515 4.51816 7.11637 4.51816C7.34755 4.51816 7.53499 4.70555 7.53499 4.93677V7.65778C7.53499 7.88896 7.34755 8.0764 7.11637 8.0764Z" fill="white"/>
<path d="M8.79093 8.15343C8.55971 8.15343 8.37231 7.96603 8.37231 7.73481V5.0138C8.37231 4.78262 8.55971 4.59518 8.79093 4.59518C9.02211 4.59518 9.20955 4.78262 9.20955 5.0138V7.73481C9.20955 7.96599 9.02211 8.15343 8.79093 8.15343Z" fill="white"/>
<path d="M10.4655 8.15343C10.2343 8.15343 10.0469 7.96603 10.0469 7.73481V5.0138C10.0469 4.78262 10.2343 4.59518 10.4655 4.59518C10.6967 4.59518 10.8841 4.78262 10.8841 5.0138V7.73481C10.8841 7.96599 10.6967 8.15343 10.4655 8.15343Z" fill="white"/>
<path d="M12.1398 8.0764C11.9086 8.0764 11.7212 7.88896 11.7212 7.65778V4.93677C11.7212 4.70555 11.9086 4.51816 12.1398 4.51816C12.371 4.51816 12.5584 4.70555 12.5584 4.93677V7.65778C12.5584 7.88896 12.371 8.0764 12.1398 8.0764Z" fill="white"/>
<path d="M13.8144 7.91185C13.5832 7.91185 13.3958 7.72445 13.3958 7.49323V4.77222C13.3958 4.54104 13.5832 4.35361 13.8144 4.35361C14.0455 4.35361 14.233 4.541 14.233 4.77222V7.49323C14.233 7.72445 14.0455 7.91185 13.8144 7.91185Z" fill="white"/>
<path d="M15.4889 7.63686C15.2577 7.63686 15.0703 7.44946 15.0703 7.21824V4.49723C15.0703 4.26605 15.2577 4.07861 15.4889 4.07861C15.7201 4.07861 15.9075 4.26601 15.9075 4.49723V7.21824C15.9075 7.44942 15.7201 7.63686 15.4889 7.63686Z" fill="white"/>
<path d="M17.1632 7.18471C16.9321 7.18471 16.7446 6.99727 16.7446 6.76609V4.04508C16.7446 3.8139 16.9321 3.62646 17.1632 3.62646C17.3944 3.62646 17.5819 3.81386 17.5819 4.04508V6.76609C17.5819 6.99731 17.3944 7.18471 17.1632 7.18471Z" fill="white"/>
<path d="M3.76749 12.836C3.53631 12.836 3.34888 12.6486 3.34888 12.4174V9.69642C3.34888 9.46524 3.53627 9.2778 3.76749 9.2778C3.99871 9.2778 4.18611 9.46524 4.18611 9.69642V12.4174C4.18611 12.6486 3.99867 12.836 3.76749 12.836Z" fill="white"/>
<path d="M5.44205 13.2881C5.21087 13.2881 5.02344 13.1007 5.02344 12.8695V10.1485C5.02344 9.91733 5.21083 9.72989 5.44205 9.72989C5.67323 9.72989 5.86067 9.91733 5.86067 10.1485V12.8695C5.86067 13.1007 5.67323 13.2881 5.44205 13.2881Z" fill="white"/>
<path d="M7.11637 13.5632C6.88515 13.5632 6.69775 13.3757 6.69775 13.1446V10.4236C6.69775 10.1924 6.88515 10.0049 7.11637 10.0049C7.34755 10.0049 7.53499 10.1924 7.53499 10.4236V13.1446C7.53499 13.3757 7.34755 13.5632 7.11637 13.5632Z" fill="white"/>
<path d="M8.79093 13.7277C8.55971 13.7277 8.37231 13.5403 8.37231 13.3091V10.5881C8.37231 10.3569 8.55971 10.1695 8.79093 10.1695C9.02211 10.1695 9.20955 10.3569 9.20955 10.5881V13.3091C9.20955 13.5403 9.02211 13.7277 8.79093 13.7277Z" fill="white"/>
<path d="M10.4655 13.8047C10.2343 13.8047 10.0469 13.6173 10.0469 13.3861V10.6651C10.0469 10.4339 10.2343 10.2465 10.4655 10.2465C10.6967 10.2465 10.8841 10.4339 10.8841 10.6651V13.3861C10.8841 13.6173 10.6967 13.8047 10.4655 13.8047Z" fill="white"/>
<path d="M12.1398 13.8047C11.9086 13.8047 11.7212 13.6173 11.7212 13.3861V10.6651C11.7212 10.4339 11.9086 10.2465 12.1398 10.2465C12.371 10.2465 12.5584 10.4339 12.5584 10.6651V13.3861C12.5584 13.6173 12.371 13.8047 12.1398 13.8047Z" fill="white"/>
<path d="M13.8144 13.7277C13.5832 13.7277 13.3958 13.5403 13.3958 13.3091V10.5881C13.3958 10.3569 13.5832 10.1695 13.8144 10.1695C14.0455 10.1695 14.233 10.3569 14.233 10.5881V13.3091C14.233 13.5403 14.0455 13.7277 13.8144 13.7277Z" fill="white"/>
<path d="M15.4889 13.5632C15.2577 13.5632 15.0703 13.3757 15.0703 13.1446V10.4236C15.0703 10.1924 15.2577 10.0049 15.4889 10.0049C15.7201 10.0049 15.9075 10.1924 15.9075 10.4236V13.1446C15.9075 13.3757 15.7201 13.5632 15.4889 13.5632Z" fill="white"/>
<path d="M17.1632 13.2881C16.9321 13.2881 16.7446 13.1007 16.7446 12.8695V10.1485C16.7446 9.91733 16.9321 9.72989 17.1632 9.72989C17.3944 9.72989 17.5819 9.91733 17.5819 10.1485V12.8695C17.5819 13.1007 17.3944 13.2881 17.1632 13.2881Z" fill="white"/>
<path d="M18.8378 12.836C18.6066 12.836 18.4192 12.6486 18.4192 12.4174V9.69642C18.4192 9.46524 18.6066 9.2778 18.8378 9.2778C19.069 9.2778 19.2564 9.46524 19.2564 9.69642V12.4174C19.2564 12.6486 19.069 12.836 18.8378 12.836Z" fill="white"/>
<path d="M2.93034 18.2781C2.69916 18.2781 2.51172 18.0906 2.51172 17.8594V15.1384C2.51172 14.9073 2.69912 14.7198 2.93034 14.7198C3.16156 14.7198 3.34895 14.9073 3.34895 15.1384V17.8594C3.34895 18.0906 3.16152 18.2781 2.93034 18.2781Z" fill="white"/>
<path d="M4.6049 18.7301C4.37372 18.7301 4.18628 18.5427 4.18628 18.3115V15.5905C4.18628 15.3593 4.37368 15.1719 4.6049 15.1719C4.83612 15.1719 5.02351 15.3593 5.02351 15.5905V18.3115C5.02351 18.5427 4.83608 18.7301 4.6049 18.7301Z" fill="white"/>
<path d="M6.27921 19.0052C6.04799 19.0052 5.8606 18.8178 5.8606 18.5866V15.8656C5.8606 15.6344 6.04799 15.447 6.27921 15.447C6.51039 15.447 6.69783 15.6344 6.69783 15.8656V18.5866C6.69783 18.8178 6.51039 19.0052 6.27921 19.0052Z" fill="white"/>
<path d="M7.95377 19.1697C7.72255 19.1697 7.53516 18.9823 7.53516 18.7511V16.0301C7.53516 15.7989 7.72255 15.6115 7.95377 15.6115C8.18495 15.6115 8.37239 15.7989 8.37239 16.0301V18.7511C8.37239 18.9823 8.18495 19.1697 7.95377 19.1697Z" fill="white"/>
<path d="M9.62809 19.2468C9.39687 19.2468 9.20947 19.0593 9.20947 18.8281V16.1071C9.20947 15.8759 9.39687 15.6885 9.62809 15.6885C9.85927 15.6885 10.0467 15.8759 10.0467 16.1071V18.8281C10.0467 19.0593 9.85927 19.2468 9.62809 19.2468Z" fill="white"/>
<path d="M11.3027 19.2468C11.0715 19.2468 10.884 19.0593 10.884 18.8281V16.1071C10.884 15.8759 11.0715 15.6885 11.3027 15.6885C11.5338 15.6885 11.7213 15.8759 11.7213 16.1071V18.8281C11.7213 19.0593 11.5338 19.2468 11.3027 19.2468Z" fill="white"/>
<path d="M12.9772 19.1697C12.746 19.1697 12.5586 18.9823 12.5586 18.7511V16.0301C12.5586 15.7989 12.746 15.6115 12.9772 15.6115C13.2084 15.6115 13.3958 15.7989 13.3958 16.0301V18.7511C13.3958 18.9823 13.2084 19.1697 12.9772 19.1697Z" fill="white"/>
<path d="M14.6515 19.0052C14.4203 19.0052 14.2329 18.8178 14.2329 18.5866V15.8656C14.2329 15.6344 14.4203 15.447 14.6515 15.447C14.8827 15.447 15.0701 15.6344 15.0701 15.8656V18.5866C15.0701 18.8178 14.8827 19.0052 14.6515 19.0052Z" fill="white"/>
<path d="M16.3261 18.7301C16.0949 18.7301 15.9075 18.5427 15.9075 18.3115V15.5905C15.9075 15.3593 16.0949 15.1719 16.3261 15.1719C16.5573 15.1719 16.7447 15.3593 16.7447 15.5905V18.3115C16.7447 18.5427 16.5573 18.7301 16.3261 18.7301Z" fill="white"/>
<path d="M18.0004 18.2781C17.7692 18.2781 17.5818 18.0906 17.5818 17.8594V15.1384C17.5818 14.9073 17.7692 14.7198 18.0004 14.7198C18.2316 14.7198 18.419 14.9073 18.419 15.1384V17.8594C18.419 18.0906 18.2316 18.2781 18.0004 18.2781Z" fill="white"/>
<path d="M9.62819 8.16303C9.35032 8.16303 9.06542 8.15976 8.78143 8.1533C8.21499 8.14092 7.64478 8.11471 7.08701 8.07535C6.50058 8.03373 5.92931 7.9776 5.38891 7.90851C4.78445 7.83117 4.21053 7.73689 3.68309 7.62827C3.57423 7.60583 3.47754 7.58498 3.38748 7.56446C2.85371 7.4448 2.37066 7.30883 1.95311 7.16064C0.657073 6.70053 0 6.12232 0 5.44202V2.72102C0 2.48984 0.187396 2.3024 0.418617 2.3024C0.649837 2.3024 0.837234 2.4898 0.837234 2.72102V5.44202C0.837234 5.60322 1.13121 5.98042 2.23314 6.37161C2.61909 6.50856 3.06956 6.63512 3.57198 6.74779C3.65766 6.76729 3.74883 6.78695 3.85201 6.80821C4.35877 6.91262 4.91159 7.00338 5.49512 7.07798C6.01999 7.14511 6.57547 7.19968 7.14612 7.24016C7.6902 7.27854 8.24675 7.30413 8.80007 7.31623C9.0781 7.32257 9.35662 7.32576 9.62815 7.32576C9.89967 7.32576 10.1782 7.32257 10.4559 7.31623C11.0095 7.30413 11.5661 7.27858 12.1104 7.24016C12.6808 7.19964 13.2363 7.14507 13.7612 7.07798C14.3447 7.00333 14.8976 6.91258 15.4043 6.80821C16.0203 6.6812 16.565 6.53431 17.0232 6.37165C17.1168 6.33845 17.2077 6.30419 17.2935 6.26969C18.1244 5.93647 18.4191 5.6156 18.4191 5.44207V2.72102C18.4191 2.48984 18.6065 2.3024 18.8377 2.3024C19.0689 2.3024 19.2563 2.4898 19.2563 2.72102V5.44202C19.2563 6.06742 18.7009 6.60728 17.6054 7.04663C17.5091 7.0853 17.4073 7.12369 17.3031 7.16064C16.809 7.3361 16.2269 7.49341 15.5733 7.62819C15.0458 7.73685 14.4719 7.83112 13.8674 7.90843C13.327 7.97752 12.7557 8.03369 12.1695 8.0753C11.6115 8.11467 11.0413 8.14092 10.4745 8.15326C10.1909 8.15976 9.90605 8.16303 9.62819 8.16303Z" fill="white"/>
<path d="M9.62819 5.44202C9.35032 5.44202 9.06542 5.43875 8.78143 5.43229C8.21499 5.4199 7.64478 5.3937 7.08701 5.35433C6.50058 5.31271 5.92931 5.25654 5.38891 5.1875C4.7845 5.11019 4.21057 5.01592 3.68309 4.90726C3.02941 4.77248 2.44735 4.61517 1.95303 4.43963C0.657073 3.97952 0 3.4013 0 2.72101C0 1.87127 1.01425 1.18684 3.01453 0.686793C4.78617 0.243934 7.13492 0 9.62815 0C12.1214 0 14.4701 0.243893 16.2418 0.686793C18.2421 1.18684 19.2563 1.87123 19.2563 2.72101C19.2563 3.4013 18.5992 3.97952 17.3033 4.43959C16.809 4.61513 16.2269 4.77244 15.5733 4.90718C15.0458 5.01588 14.4719 5.11011 13.8674 5.18741C13.327 5.2565 12.7557 5.31267 12.1695 5.35429C11.6115 5.39366 11.0413 5.41986 10.4745 5.43225C10.1909 5.43875 9.90605 5.44202 9.62819 5.44202ZM9.62819 0.837234C7.20144 0.837234 4.92476 1.07226 3.21763 1.49901C1.33471 1.96971 0.837234 2.50418 0.837234 2.72101C0.837234 2.8822 1.13121 3.25941 2.23314 3.65059C2.69133 3.8133 3.23602 3.96018 3.85209 4.0872C4.35881 4.19156 4.91163 4.28236 5.49512 4.35697C6.01999 4.42409 6.57547 4.47867 7.14612 4.51914C7.6902 4.55753 8.24675 4.58312 8.80007 4.59522C9.0781 4.60156 9.35662 4.60474 9.62815 4.60474C9.89967 4.60474 10.1782 4.60156 10.4559 4.59522C11.0095 4.58312 11.5661 4.55757 12.1104 4.51914C12.6808 4.47867 13.2363 4.42405 13.7612 4.35697C14.3447 4.28236 14.8976 4.19161 15.4043 4.0872C16.0203 3.96022 16.565 3.8133 17.0232 3.65063C18.1251 3.25945 18.4191 2.88224 18.4191 2.72105C18.4191 2.50422 17.9216 1.96975 16.0387 1.49909C14.3316 1.07226 12.0549 0.837234 9.62819 0.837234Z" fill="white"/>
<path d="M11.3027 13.8143C11.0252 13.8143 10.7403 13.8111 10.456 13.8046C9.88877 13.7922 9.31857 13.766 8.76153 13.7267C8.17559 13.6851 7.60432 13.6289 7.06343 13.5598C6.45889 13.4825 5.88493 13.3882 5.35761 13.2795C4.70385 13.1447 4.12179 12.9874 3.62755 12.8119C2.33163 12.3518 1.67456 11.7736 1.67456 11.0933V8.37232C1.67456 8.14114 1.86196 7.9537 2.09318 7.9537C2.3244 7.9537 2.51179 8.14114 2.51179 8.37232V11.0933C2.51179 11.2545 2.80577 11.6317 3.9077 12.0229C4.36581 12.1856 4.91046 12.3325 5.52665 12.4595C6.03324 12.5639 6.58607 12.6547 7.16968 12.7293C7.695 12.7965 8.25048 12.8511 8.82064 12.8915C9.36407 12.9298 9.92062 12.9555 10.4746 12.9676C10.753 12.9739 11.0315 12.9771 11.3027 12.9771C11.5739 12.9771 11.8524 12.9739 12.1305 12.9676C12.6848 12.9555 13.2413 12.9298 13.7849 12.8915C14.3549 12.8511 14.9104 12.7965 15.4358 12.7293C16.0194 12.6547 16.5722 12.5639 17.0788 12.4595C17.695 12.3325 18.2396 12.1856 18.6978 12.0229C19.7996 11.6317 20.0937 11.2545 20.0937 11.0933V8.37232C20.0937 8.14114 20.2811 7.9537 20.5123 7.9537C20.7435 7.9537 20.9309 8.14114 20.9309 8.37232V11.0933C20.9309 11.7736 20.2738 12.3518 18.9779 12.8119C18.4836 12.9874 17.9016 13.1447 17.2479 13.2795C16.7204 13.3882 16.1465 13.4825 15.542 13.5598C15.001 13.6289 14.4298 13.6851 13.844 13.7266C13.2868 13.766 12.7166 13.7922 12.1491 13.8047C11.8651 13.8111 11.5802 13.8143 11.3027 13.8143Z" fill="white"/>
<path d="M11.3027 11.0933C11.0252 11.0933 10.7403 11.0901 10.456 11.0836C9.88877 11.0712 9.31857 11.045 8.76153 11.0057C8.17559 10.9641 7.60432 10.908 7.06343 10.8388C6.45889 10.7615 5.88493 10.6672 5.35761 10.5585C4.70385 10.4237 4.12179 10.2664 3.62755 10.0909C2.33163 9.6308 1.67456 9.05259 1.67456 8.37234C1.67456 7.74691 2.22972 7.20704 3.32458 6.76778C3.53916 6.68164 3.78285 6.78585 3.86895 7.00039C3.95504 7.21493 3.85088 7.45866 3.63634 7.54475C2.8063 7.87776 2.51179 8.19868 2.51179 8.3723C2.51179 8.53349 2.80577 8.91065 3.9077 9.30188C4.36581 9.46454 4.91046 9.61143 5.52665 9.73848C6.03324 9.84285 6.58607 9.93365 7.16968 10.0083C7.695 10.0755 8.25048 10.13 8.82064 10.1705C9.36407 10.2088 9.92062 10.2344 10.4746 10.2465C10.753 10.2529 11.0315 10.2561 11.3027 10.2561C11.5739 10.2561 11.8524 10.2529 12.1305 10.2466C12.6848 10.2344 13.2413 10.2088 13.7849 10.1704C14.3549 10.13 14.9104 10.0755 15.4358 10.0083C16.0194 9.93365 16.5722 9.84285 17.0788 9.73848C17.695 9.61143 18.2396 9.46454 18.6978 9.30188C19.7996 8.91069 20.0937 8.53349 20.0937 8.3723C20.0937 8.09374 19.3652 7.51614 17.3582 7.06657C17.1326 7.01604 16.9906 6.79218 17.0412 6.5666C17.0917 6.34102 17.3153 6.199 17.5412 6.24961C19.7904 6.75343 20.9309 7.46765 20.9309 8.37234C20.9309 9.05259 20.2738 9.6308 18.9779 10.0909C18.4836 10.2664 17.9016 10.4237 17.2479 10.5585C16.7204 10.6672 16.1465 10.7615 15.542 10.8388C15.001 10.908 14.4298 10.9641 13.844 11.0056C13.2868 11.045 12.7166 11.0712 12.1491 11.0837C11.8651 11.0901 11.5802 11.0933 11.3027 11.0933Z" fill="white"/>
<path d="M10.4653 16.5354C10.1878 16.5354 9.90295 16.5321 9.61863 16.5256C9.05141 16.5133 8.48121 16.487 7.92417 16.4477C7.33823 16.4061 6.76696 16.35 6.22607 16.2808C5.62153 16.2035 5.04757 16.1092 4.52025 16.0005C3.86649 15.8657 3.28443 15.7084 2.79019 15.5329C1.49423 15.0728 0.837158 14.4946 0.837158 13.8144C0.837158 13.0379 1.68964 12.3971 3.37089 11.9099C3.59283 11.8456 3.82512 11.9734 3.88946 12.1955C3.95381 12.4175 3.82598 12.6497 3.60391 12.714C2.07768 13.1563 1.67439 13.6272 1.67439 13.8144C1.67439 13.9756 1.96836 14.3528 3.0703 14.7439C3.52841 14.9066 4.07306 15.0535 4.68925 15.1805C5.19584 15.2849 5.74867 15.3757 6.33228 15.4504C6.8576 15.5175 7.41308 15.5721 7.98324 15.6125C8.52667 15.6509 9.08321 15.6765 9.63723 15.6886C9.91554 15.6949 10.1941 15.6981 10.4653 15.6981C10.7365 15.6981 11.015 15.6949 11.2931 15.6887C11.8474 15.6765 12.4039 15.6509 12.9475 15.6125C13.5175 15.5721 14.073 15.5175 14.5984 15.4504C15.182 15.3757 15.7348 15.2849 16.2414 15.1805C16.8575 15.0535 17.4022 14.9066 17.8603 14.7439C18.9622 14.3528 19.2563 13.9756 19.2563 13.8144C19.2563 13.6403 18.9602 13.3186 18.1257 12.9844C17.911 12.8984 17.8067 12.6547 17.8927 12.4401C17.9787 12.2255 18.2225 12.1213 18.4369 12.2071C19.5361 12.6474 20.0935 13.1881 20.0935 13.8144C20.0935 14.4946 19.4364 15.0728 18.1405 15.5329C17.6462 15.7084 17.0642 15.8657 16.4105 16.0005C15.883 16.1092 15.3091 16.2035 14.7046 16.2808C14.1636 16.35 13.5924 16.4061 13.0066 16.4476C12.4494 16.487 11.8792 16.5133 11.3117 16.5257C11.0277 16.5321 10.7429 16.5354 10.4653 16.5354Z" fill="white"/>
<path d="M10.4653 19.2564C10.1878 19.2564 9.90295 19.2531 9.61863 19.2466C9.05141 19.2342 8.48121 19.208 7.92417 19.1687C7.33823 19.1271 6.76696 19.071 6.22607 19.0018C5.62153 18.9245 5.04757 18.8302 4.52025 18.7215C3.86649 18.5867 3.28443 18.4294 2.79019 18.2539C1.49423 17.7938 0.837158 17.2156 0.837158 16.5353V13.8143C0.837158 13.5832 1.02455 13.3957 1.25577 13.3957C1.487 13.3957 1.67439 13.5832 1.67439 13.8143V16.5353C1.67439 16.6965 1.96836 17.0737 3.0703 17.4649C3.52841 17.6276 4.07306 17.7745 4.68925 17.9015C5.19584 18.0059 5.74867 18.0967 6.33228 18.1713C6.8576 18.2385 7.41308 18.2931 7.98324 18.3335C8.52667 18.3719 9.08321 18.3975 9.63723 18.4096C9.91554 18.4159 10.1941 18.4191 10.4653 18.4191C10.7365 18.4191 11.015 18.4159 11.2931 18.4096C11.8474 18.3975 12.4039 18.3719 12.9475 18.3335C13.5175 18.2931 14.073 18.2385 14.5984 18.1713C15.182 18.0967 15.7348 18.0059 16.2414 17.9015C16.8575 17.7745 17.4022 17.6276 17.8603 17.4649C18.9622 17.0737 19.2563 16.6965 19.2563 16.5353V13.8143C19.2563 13.5832 19.4437 13.3957 19.6749 13.3957C19.9061 13.3957 20.0935 13.5832 20.0935 13.8143V16.5353C20.0935 17.2156 19.4364 17.7938 18.1405 18.2539C17.6462 18.4294 17.0642 18.5867 16.4105 18.7215C15.883 18.8302 15.3091 18.9245 14.7046 19.0018C14.1636 19.071 13.5924 19.1271 13.0066 19.1686C12.4494 19.208 11.8792 19.2342 11.3117 19.2467C11.0277 19.2531 10.7429 19.2564 10.4653 19.2564Z" fill="white"/>
</svg>
