<svg width="95" height="31" viewBox="0 0 95 31" fill="none" xmlns="http://www.w3.org/2000/svg">
<path fill-rule="evenodd" clip-rule="evenodd" d="M84.8343 30.2152C84.8343 30.2152 75.4482 19.8015 75.4042 10.9583C75.3699 4.11297 80.2757 0.515325 84.8928 0.602199C90.0704 0.699637 94.8328 4.13555 94.7729 10.9583C94.6951 19.8927 84.8343 30.2152 84.8343 30.2152ZM80.1388 8.38546V10.1007H89.608L80.5691 25.1086L81.8605 26.8238L92.1907 8.38546H80.1388Z" fill="#59C2A4"/>
<path fill-rule="evenodd" clip-rule="evenodd" d="M10.7152 9.63723C7.70223 9.63723 5.19646 10.6278 3.19787 12.609C1.19929 14.5902 0.199981 17.0715 0.199951 20.0529C0.199951 22.9546 1.18921 25.3959 3.16773 27.3768C5.14626 29.3577 7.62186 30.3483 10.5946 30.3486C12.8039 30.3486 14.8226 29.6982 16.6506 28.3975V25.6355C15.9736 26.3171 15.1901 26.8848 14.3306 27.3164C13.1254 27.9369 11.8801 28.247 10.5946 28.2468C8.54573 28.2468 6.68271 27.5165 5.00552 26.0557C3.32833 24.5949 2.48976 22.604 2.48982 20.0827C2.48982 17.7415 3.25812 15.7655 4.79473 14.1546C6.33134 12.5437 8.25461 11.7383 10.5646 11.7383C11.7293 11.7383 12.8842 11.9985 14.0295 12.5188C14.9733 12.9591 15.8471 13.5794 16.6507 14.3797V11.6183C14.9032 10.2975 12.9248 9.63715 10.7154 9.63715L10.7152 9.63723Z" fill="#67579C"/>
<path fill-rule="evenodd" clip-rule="evenodd" d="M60.3701 30.0174H62.5392V17.5608H60.3701V30.0174ZM61.4546 14.3792C61.8119 14.3807 62.1585 14.2586 62.4355 14.0339C62.7125 13.8091 62.9026 13.4956 62.9734 13.1468C63.0442 12.7979 62.9913 12.4354 62.8238 12.1211C62.6562 11.8068 62.3844 11.5602 62.0546 11.4233C61.7249 11.2864 61.3576 11.2677 61.0156 11.3705C60.6736 11.4732 60.378 11.691 60.1792 11.9867C59.9804 12.2824 59.8907 12.6377 59.9256 12.9919C59.9604 13.3461 60.1175 13.6773 60.3701 13.9289C60.5104 14.0738 60.679 14.1885 60.8655 14.2659C61.0521 14.3434 61.2526 14.3819 61.4546 14.3792ZM71.036 17.5609H68.8665V13.0584H66.6974V17.5608H65.3713V19.5417H66.6974V30.0174H68.8665V19.5417H71.036V17.5605V17.5609Z" fill="#67579C"/>
<path fill-rule="evenodd" clip-rule="evenodd" d="M23.0724 30.1615V23.588C23.0724 21.9873 23.3135 20.8667 23.7955 20.2261C24.1971 19.706 24.7796 19.4459 25.5431 19.4457C25.9846 19.4457 26.4064 19.5858 26.8085 19.8659L27.8329 17.9149C27.1498 17.575 26.5071 17.4049 25.9047 17.4048C24.7193 17.4048 23.7752 17.955 23.0725 19.0556V17.7049H20.9031V30.1615H23.0724ZM37.0827 27.7002C36.3594 28.3005 35.5057 28.6006 34.5216 28.6006C33.4168 28.6006 32.4828 28.2104 31.7196 27.43C30.9565 26.6496 30.5648 25.6291 30.5446 24.3684H40.2765C40.3368 22.4474 39.9451 20.8866 39.1013 19.686C38.0366 18.1655 36.4599 17.405 34.3711 17.4048C32.5228 17.4048 31.0514 18.0301 29.9571 19.2807C28.862 20.5316 28.3147 22.1074 28.315 24.0082C28.315 26.1694 28.9226 27.7952 30.1378 28.8858C31.353 29.9764 32.8043 30.5217 34.4917 30.5216C36.1187 30.5216 37.5047 30.0113 38.6495 28.9908C39.2523 28.4505 39.7644 27.7802 40.1859 26.9798L38.3785 25.9892C38.0784 26.6476 37.636 27.2319 37.0827 27.7001V27.7002ZM31.9757 20.2412C32.6687 19.6311 33.4672 19.3259 34.3711 19.3258C35.2947 19.3258 36.0931 19.6209 36.7664 20.2112C37.4391 20.8016 37.8659 21.587 38.0467 22.5674H30.6952C30.8558 21.6271 31.2826 20.8517 31.9757 20.2412Z" fill="#67579C"/>
<path fill-rule="evenodd" clip-rule="evenodd" d="M49.6126 17.2614C47.905 17.2614 46.4638 17.8367 45.2889 18.9873C44.114 20.138 43.5265 21.7338 43.5264 23.7748C43.5264 25.8563 44.1189 27.4772 45.3039 28.6374C46.4889 29.7982 47.9251 30.3785 49.6126 30.3783C51.38 30.3783 52.8061 29.678 53.8909 28.2772V30.0182H56.0605V8.13663H53.8909V19.3325C52.8464 17.9518 51.4203 17.2614 49.6126 17.2614ZM52.7461 20.3831C53.5895 21.1837 54.0113 22.3243 54.0115 23.8049C54.0115 25.1059 53.6349 26.2065 52.8816 27.1066C52.1284 28.0068 51.1191 28.457 49.8537 28.4573C48.5883 28.4573 47.589 28.0221 46.8557 27.1516C46.1224 26.2812 45.7557 25.1556 45.7557 23.7748C45.7557 22.3343 46.1525 21.2087 46.9459 20.3981C47.7393 19.5875 48.7086 19.1823 49.8537 19.1824C50.9384 19.1824 51.9025 19.5827 52.7461 20.3831Z" fill="#67579C"/>
</svg>
