<svg width="36" height="38" viewBox="0 0 36 38" fill="none" xmlns="http://www.w3.org/2000/svg">
<path d="M23.4997 17.5C22.2549 17.3222 21.2631 17.1443 20.4117 16.989L16.4997 16.5C12.7758 17.298 9.27831 19.0582 7.30199 20.4707C7.03897 21.0847 6.77789 21.7579 6.49961 22.5C5.00195 22.6872 5.56329 21.7135 7.30199 20.4707C8.45675 17.7751 9.64898 16.2217 12.4997 15C10.4997 8 9.99968 6.5 9.49968 4.5C8.74968 1.5 14.4997 -1 16.4997 3.5L17.4997 13.5H18.4997C18.833 11 19.4997 5.5 19.4997 3.5C20.4997 -2.38419e-07 26.4997 -2.6226e-06 26.4997 4.5L23.4997 15C24.9997 15.5 31.4997 18 30.4997 31C28.9057 31.5453 28.0634 31.2397 27.6124 30.4068C25.0663 27.5286 26.2768 17.8968 23.4997 17.5Z" fill="url(#paint0_linear_30_63)" fill-opacity="0.7"/>
<path d="M14.5 16C14.3908 15.2359 9.62014 18.4326 7.24003 20.6172C6.99793 21.1914 6.7562 21.8165 6.49987 22.5C5.39574 22.638 5.98615 21.768 7.24003 20.6172C8.41471 17.8311 9.59802 16.2437 12.5 15C10.5 8 14 7 13.5 5C12.75 2 14.5 -1 16.5 3.5L17.5 13.5H18.5C18.8333 11 19.5 5.5 19.5 3.5C19.6851 2.8519 20.0417 2.32381 20.5 1.92207C22.5163 0.154297 26.4999 0.83327 26.4999 4.5L24.2351 12.4271C24.4181 13.4623 24.5919 14.5158 24.7647 15.5622C26.9374 16.7616 30.4999 19.9518 30.4999 28C27.0215 29.19 25.916 22.5339 24.7647 15.5622C24.2379 15.2714 23.7927 15.0976 23.4999 15L24.2351 12.4271C23.4171 7.80172 22.4153 3.54279 20.5 1.92207L19.5 14L14.5 16Z" fill="url(#paint1_linear_30_63)" fill-opacity="0.7"/>
<path d="M2.99992 26.5L4.99992 32C10.1999 36.4 24.1666 33.1667 30.5 31C31.5 18 25 15.5 23.5 15L26.5 4.5C26.5 -2.6226e-06 20.5 -2.38419e-07 19.5 3.5C19.5 5.5 18.8333 11 18.5 13.5H17.5L16.5 3.5C14.5 -1 8.75 1.5 9.5 4.5C10 6.5 10.5 8 12.5 15C9 16.5 8 18.5 6.49992 22.5C3.29992 22.9 2.83325 25.3333 2.99992 26.5Z" fill="url(#paint2_linear_30_63)" fill-opacity="0.7"/>
<path d="M29.5 26.1073C29.5 27.7642 27.433 30.0002 25.5 30.0002C23.567 30.0002 22 28.657 22 27.0002C22 25.3433 23.567 24.0002 25.5 24.0002C27.433 24.0002 29.5 24.4505 29.5 26.1073Z" fill="url(#paint3_linear_30_63)"/>
<path d="M12.3156 28.2066C12.5637 29.8447 14.9422 31.746 16.8534 31.4566C18.7646 31.1671 20.1128 29.6045 19.8647 27.9663C19.6167 26.3282 17.8662 25.2348 15.955 25.5242C14.0438 25.8136 12.0675 26.5684 12.3156 28.2066Z" fill="url(#paint4_linear_30_63)"/>
<path d="M6.04389 24.6071C6.86452 30.026 14.7324 36.3152 21.0545 35.3578C27.3766 34.4004 31.8364 29.2313 31.0158 23.8124C30.1951 18.3934 24.4048 14.7767 18.0827 15.7341C11.7606 16.6915 5.22325 19.1881 6.04389 24.6071Z" fill="url(#paint5_radial_30_63)"/>
<path d="M0.0486145 20.5546C0.179077 20.2495 0.531738 20.108 0.836334 20.2388L3.27667 21.2872L1.29117 18.1031C1.11566 17.8209 1.20163 17.4492 1.48315 17.273C1.76495 17.0971 2.13547 17.1833 2.31125 17.4655L4.20007 20.4992V17.7843C4.20007 17.4523 4.46869 17.183 4.79993 17.183C5.13144 17.183 5.40005 17.4523 5.40005 17.7843V22.0944C5.44565 22.084 5.49124 22.0782 5.53738 22.0697C6.56927 18.9646 8.6998 16.3458 11.5266 14.7079L9.1626 5.37482C8.88766 4.31154 9.06976 3.18162 9.66412 2.2593C10.5683 0.843057 12.2646 0.151454 13.898 0.533047C15.5316 0.914365 16.7484 2.28628 16.9349 3.9572L17.9363 12.9728C17.958 12.9728 17.9791 12.9728 18 12.9728C18.0209 12.9728 18.039 12.9728 18.0599 12.9728L19.0662 3.95114C19.2555 2.28188 20.4727 0.912989 22.1053 0.533047C23.7379 0.153106 25.432 0.844434 26.3359 2.2593C26.9302 3.18162 27.1123 4.31154 26.8374 5.37482L24.4663 14.717C25.521 15.3232 26.4872 16.0721 27.3384 16.9424C29.8293 19.4973 31.2166 22.9328 31.2001 26.5053V30.2494C35.4792 31.0955 36 32.1161 36 32.8206C36 36.3882 18.735 36.4292 18 36.4292C17.265 36.4292 0 36.3882 0 32.8206C0 31.819 1.24255 31.0578 3.88916 30.4435L2.66995 27.1141C2.1091 25.5825 2.58755 23.8631 3.85812 22.8439L0.363647 21.3401C0.0615234 21.2093 -0.0791016 20.8588 0.0486145 20.5546ZM15.7415 4.09018C15.6327 3.058 14.9568 2.17368 13.9911 1.80007C13.0251 1.42618 11.9317 1.62552 11.1594 2.31657C10.3867 3.00762 10.0651 4.07393 10.326 5.0783L12.6222 14.1427C13.9235 13.5504 15.3138 13.1779 16.7363 13.0403L15.7415 4.09018ZM25.6745 5.07775C25.9341 4.07366 25.6116 3.00872 24.8393 2.3185C24.0672 1.62854 22.9746 1.42921 22.0095 1.80255C21.0443 2.17588 20.3684 3.05883 20.2585 4.09018L19.2601 13.0359C20.6829 13.1757 22.0726 13.5526 23.3718 14.1509L25.6745 5.07775ZM3.6763 26.2118L4.44479 26.0277C4.76505 25.9558 5.08365 26.1549 5.15973 26.4748C5.23608 26.7947 5.0419 27.1168 4.72385 27.1975L4.03857 27.3619L4.66315 29.0675L5.7247 28.8142C5.93646 28.7553 6.16388 28.8172 6.31686 28.9755C6.46985 29.1341 6.52396 29.364 6.45776 29.5743C6.39157 29.7847 6.21606 29.9419 5.99991 29.984L5.07733 30.2048L5.73734 32.0093C5.81479 32.2116 5.77744 32.4401 5.63956 32.6075C5.50195 32.7746 5.28497 32.8545 5.07184 32.8168C4.85898 32.7788 4.68292 32.6287 4.61096 32.4242L4.30197 31.5792C1.51392 32.2089 1.20657 32.8036 1.19531 32.8036C1.47409 33.6747 7.31992 35.2264 18 35.2264C28.6801 35.2264 34.5276 33.6747 34.8 32.8344C34.8 32.8278 34.4957 32.1524 31.2001 31.4746V32.219C31.2001 32.5514 30.9315 32.8206 30.5999 32.8206C30.2687 32.8206 30.0001 32.5514 30.0001 32.219V26.5053C30.0152 23.2478 28.7512 20.1152 26.4809 17.7843C24.26 15.4771 21.1984 14.1746 18 14.1757C12.9974 14.1944 8.53528 17.3336 6.81729 22.0432C8.50562 22.3051 9.81326 23.6621 10.0157 25.3625L10.7957 32.0026C10.8246 32.2177 10.7356 32.4319 10.5625 32.5626C10.3895 32.6934 10.1596 32.7207 9.96103 32.6337C9.76245 32.547 9.62595 32.3595 9.60425 32.1433L9.25928 29.204L8.33698 29.4243C8.29111 29.4353 8.24442 29.4411 8.19717 29.4411C7.89285 29.4408 7.63687 29.2123 7.60172 28.9092C7.56656 28.6063 7.76321 28.3246 8.0593 28.2544L9.11755 28.0017L8.90579 26.1973L7.05789 26.6394C7.01202 26.6502 6.96506 26.6557 6.91809 26.6557C6.61377 26.6554 6.35779 26.4269 6.32263 26.124C6.2872 25.8209 6.48386 25.5395 6.77994 25.469L8.71573 25.0065C8.3584 23.8587 7.25565 23.1117 6.06006 23.2081C6.04688 23.2081 6.03424 23.2081 6.02106 23.2111C5.89307 23.2224 5.7659 23.2425 5.64066 23.2714C4.31845 23.5842 3.46124 24.8672 3.6763 26.2118Z" fill="black"/>
<path d="M20.7502 25H22.2502C22.6642 25 23 25.4481 23 26.0002C23 26.5526 22.6642 27.0003 22.2502 27.0003C22.2502 27.5523 21.9144 28 21.5 28C21.0859 28 20.7502 27.5523 20.7502 27.0003C20.3358 27.0003 20 26.5526 20 26.0002C20 25.4481 20.3358 25 20.7502 25Z" fill="black"/>
<path d="M21 27C21 28.4728 20.3284 29 19.5 29C18.6716 29 18 28.4728 18 27" stroke="black"/>
<path d="M25 27C25 27.4004 24.9504 27.731 24.8614 28C24.6232 28.7205 24.1032 29 23.5 29C22.6716 29 22 28.4728 22 27" stroke="black"/>
<path d="M18.9998 21C18.9998 21.8033 17.9823 22.4545 16.7271 22.4545C15.4719 22.4545 14.4543 21.8033 14.4543 21" stroke="black"/>
<path d="M14.9091 22.0909L14 22.8182" stroke="black"/>
<path d="M16.2727 22.4545V23.5455" stroke="black"/>
<path d="M18.0908 22.0909L18.9999 22.8182" stroke="black"/>
<ellipse cx="16" cy="27" rx="4" ry="2" fill="url(#paint6_linear_30_63)" fill-opacity="0.5"/>
<ellipse cx="26" cy="26" rx="3" ry="2" fill="url(#paint7_linear_30_63)" fill-opacity="0.5"/>
<path d="M26.6364 21.4545C26.6364 20.6512 25.8223 20 24.8182 20C23.814 20 23 20.6512 23 21.4545" stroke="black"/>
<circle cx="24.5" cy="21.5" r="1" stroke="black"/>
<path d="M14.5981 2.73181C15.1506 3.68826 14.7258 4.96781 13.6491 5.58976C12.5725 6.21171 12.9639 5.52891 12.4114 4.57246C11.8589 3.61601 10.5716 2.74809 11.6483 2.12614C12.7249 1.50419 14.0456 1.77536 14.5981 2.73181Z" fill="url(#paint8_linear_30_63)"/>
<path d="M25.3273 4.53705C25.116 5.62121 23.9553 6.30724 22.7349 6.06935C21.5145 5.83145 22.2581 5.57352 22.4694 4.48936C22.6807 3.4052 22.2798 1.90535 23.5002 2.14324C24.7206 2.38114 25.5386 3.45288 25.3273 4.53705Z" fill="url(#paint9_linear_30_63)"/>
<defs>
<linearGradient id="paint0_linear_30_63" x1="12.5" y1="4" x2="48.5" y2="15" gradientUnits="userSpaceOnUse">
<stop stop-color="#EF5D88" stop-opacity="0.48"/>
<stop offset="0.415" stop-color="#C95DEF" stop-opacity="0.56"/>
</linearGradient>
<linearGradient id="paint1_linear_30_63" x1="12.5" y1="4" x2="48.5" y2="15" gradientUnits="userSpaceOnUse">
<stop stop-color="#EF5D88" stop-opacity="0.48"/>
<stop offset="0.415" stop-color="#A65DEF" stop-opacity="0.56"/>
</linearGradient>
<linearGradient id="paint2_linear_30_63" x1="12.5" y1="4" x2="48.5" y2="15" gradientUnits="userSpaceOnUse">
<stop stop-color="#EF5D88" stop-opacity="0.48"/>
<stop offset="0.415" stop-color="#EF5DB5" stop-opacity="0.56"/>
</linearGradient>
<linearGradient id="paint3_linear_30_63" x1="31.5" y1="26.1073" x2="24" y2="22.1073" gradientUnits="userSpaceOnUse">
<stop stop-color="#FFF3F3" stop-opacity="0.8"/>
<stop offset="1" stop-color="white" stop-opacity="0"/>
</linearGradient>
<linearGradient id="paint4_linear_30_63" x1="10.3382" y1="28.506" x2="17.1547" y2="23.4281" gradientUnits="userSpaceOnUse">
<stop stop-color="#FFF3F3" stop-opacity="0.8"/>
<stop offset="1" stop-color="white" stop-opacity="0"/>
</linearGradient>
<radialGradient id="paint5_radial_30_63" cx="0" cy="0" r="1" gradientUnits="userSpaceOnUse" gradientTransform="translate(16.5307 26.3022) rotate(-72.4938) scale(18.3518 21.4104)">
<stop stop-color="#FFF3F3" stop-opacity="0.8"/>
<stop offset="1" stop-color="white" stop-opacity="0"/>
</radialGradient>
<linearGradient id="paint6_linear_30_63" x1="16" y1="25" x2="16" y2="29" gradientUnits="userSpaceOnUse">
<stop stop-color="#FF66E7" stop-opacity="0.71"/>
<stop offset="1" stop-color="#FC5CFF" stop-opacity="0"/>
</linearGradient>
<linearGradient id="paint7_linear_30_63" x1="26" y1="24" x2="26" y2="28" gradientUnits="userSpaceOnUse">
<stop stop-color="#FF6BB2" stop-opacity="0.6"/>
<stop offset="1" stop-color="#EE63F1" stop-opacity="0"/>
</linearGradient>
<linearGradient id="paint8_linear_30_63" x1="12.2989" y1="1.75032" x2="13.5" y2="6" gradientUnits="userSpaceOnUse">
<stop stop-color="white"/>
<stop offset="1" stop-color="white" stop-opacity="0"/>
</linearGradient>
<linearGradient id="paint9_linear_30_63" x1="24.2377" y1="2.287" x2="22.353" y2="6.28084" gradientUnits="userSpaceOnUse">
<stop stop-color="white"/>
<stop offset="1" stop-color="white" stop-opacity="0"/>
</linearGradient>
</defs>
</svg>
