<svg width="244" height="20" viewBox="0 0 244 20" fill="none" xmlns="http://www.w3.org/2000/svg">
<path d="M25.2269 8.01731C25.2267 7.89536 25.1614 7.78273 25.0558 7.72203L23.3228 6.7267L25.0565 5.72599C25.1621 5.66495 25.2272 5.55221 25.2269 5.43027C25.2267 5.30832 25.1614 5.19579 25.0558 5.13508C22.1015 3.43911 19.1475 1.74246 16.1936 0.0453545C16.0882 -0.0152493 15.9588 -0.0151015 15.8534 0.0456994L0.170677 9.10029C0.0650389 9.16119 6.97398e-07 9.27397 0.000247054 9.39582C0.000493411 9.51777 0.0654823 9.63031 0.171366 9.69111C0.748925 10.023 1.32663 10.3545 1.90424 10.6863L0.17043 11.6872C0.0647925 11.7481 -0.000245659 11.8609 6.97402e-07 11.9828C0.000247054 12.1047 0.0654823 12.2173 0.17112 12.278L1.90409 13.2733L0.17043 14.2741C0.0647925 14.3351 -0.000245659 14.4479 6.97402e-07 14.5697C0.000247054 14.6917 0.0654823 14.8043 0.17112 14.865L9.03331 19.9547C9.08593 19.9849 9.14451 20 9.2031 20C9.26193 20 9.32071 19.9848 9.37353 19.9543L25.0564 10.8998C25.1621 10.8389 25.2271 10.7261 25.2269 10.6042C25.2266 10.4823 25.1614 10.3697 25.0558 10.309L23.3228 9.31374L25.0564 8.31284C25.1621 8.25189 25.2272 8.13916 25.2269 8.01731ZM16.0243 0.734365C18.7502 2.3005 21.4763 3.8662 24.2026 5.43145L18.2998 8.83856C18.112 8.73224 17.7675 8.53525 17.3196 8.2784L20.6753 6.34208C20.7558 6.29547 20.814 6.21802 20.836 6.12756C20.8581 6.03724 20.8422 5.94166 20.792 5.86322C20.7199 5.75024 20.614 5.52551 20.7165 5.29014C20.7858 5.1309 20.7241 4.94499 20.5736 4.85857L16.9457 2.77351C16.8578 2.7231 16.752 2.71423 16.6567 2.74976C16.1907 2.92379 15.5546 2.89624 15.0368 2.67994C14.9391 2.63934 14.827 2.64599 14.7349 2.69936L11.1839 4.74988C11.0531 4.67459 10.9276 4.60236 10.8119 4.5357L10.1244 4.13995L16.0243 0.734365ZM20.0621 5.90864L16.6355 7.8859C15.2392 7.08421 13.3158 5.97723 11.8669 5.14311L14.9354 3.37097C15.5224 3.57614 16.1863 3.60191 16.7381 3.44064L20.0055 5.31852C19.9766 5.51255 19.9959 5.71343 20.0621 5.90864ZM6.9206 5.9894C7.24993 6.1786 7.57931 6.36761 7.90869 6.55681L4.55868 8.49204C4.47813 8.53855 4.41998 8.616 4.39801 8.70642C4.37584 8.79688 4.3918 8.89232 4.44196 8.97076C4.51409 9.08374 4.61998 9.30846 4.51764 9.54359C4.44841 9.70283 4.5101 9.88873 4.66058 9.97515L8.28734 12.057C8.375 12.1075 8.48132 12.1162 8.57632 12.0807C9.04193 11.9068 9.67802 11.9341 10.1965 12.1502C10.2384 12.1678 10.2831 12.1765 10.3277 12.1765C10.3867 12.1765 10.4457 12.1612 10.4981 12.1308L11.0569 11.808C12.0538 11.2323 13.0506 10.6567 14.0477 10.0816L15.1 10.6856L9.20256 14.0917C6.47622 12.5266 3.74965 10.9609 1.02396 9.39469L6.9206 5.9894ZM5.17191 8.92518L8.59218 6.9493C10.0348 7.7778 11.4775 8.6063 12.9202 9.43445L13.364 9.68918C12.4812 10.1985 11.5986 10.708 10.7161 11.2176L10.2977 11.4593C9.71025 11.2541 9.04686 11.2289 8.49487 11.3899L5.22877 9.51516C5.2574 9.32123 5.23809 9.12035 5.17191 8.92518ZM2.58773 11.0789C4.73616 12.3131 6.88454 13.5472 9.03331 14.7807C9.08593 14.8109 9.14451 14.826 9.2031 14.826C9.26193 14.826 9.32096 14.8107 9.37353 14.7802L15.4433 11.2747L15.4476 13.0733L9.20265 16.6787L1.02406 11.9816L2.58773 11.0789ZM9.20265 19.2657L1.02406 14.5686L2.58788 13.666L9.03331 17.3678C9.08593 17.398 9.14451 17.4131 9.2031 17.4131C9.26193 17.4131 9.32071 17.3978 9.37353 17.3673L15.4495 13.8594L15.4539 15.6567L9.20265 19.2657ZM16.1348 15.2636L16.1237 10.6837C16.1235 10.5619 16.0582 10.4494 15.9526 10.3889C15.9526 10.3889 9.48828 6.67831 7.60311 5.59523L9.44211 4.53387C9.44211 4.53387 17.395 9.11276 17.9627 9.42238L17.9723 14.2026L16.1348 15.2636ZM24.2029 10.6054L18.6533 13.8095L18.6497 12.0118L22.6401 9.70796L24.2029 10.6054ZM18.6481 11.2255L18.6445 9.42701L22.6399 7.12077L24.2029 8.01839L18.6481 11.2255ZM8.21122 10.0546C8.11711 9.89159 8.17283 9.68307 8.33597 9.58902L9.82944 8.72667C9.99213 8.63236 10.201 8.68814 10.295 8.85142C10.3892 9.01446 10.3334 9.22298 10.1703 9.31704L8.67683 10.1794C8.62313 10.2105 8.56454 10.2251 8.5066 10.2251C8.38899 10.2251 8.27423 10.1641 8.21122 10.0546ZM17.2125 4.85714C17.3067 5.02018 17.2509 5.2287 17.0878 5.32276L15.7743 6.08114C15.7206 6.11223 15.662 6.12687 15.6041 6.12687C15.4865 6.12687 15.3717 6.06582 15.3087 5.95644C15.2146 5.7934 15.2703 5.58488 15.4335 5.49082L16.7469 4.73244C16.9098 4.63823 17.1184 4.69381 17.2125 4.85714Z" fill="#B0B1FF"/>
<path d="M56.4537 8.01731C56.4535 7.89536 56.3883 7.78273 56.2826 7.72203L54.5496 6.7267L56.2833 5.72599C56.3889 5.66495 56.454 5.55221 56.4537 5.43027C56.4535 5.30832 56.3883 5.19579 56.2826 5.13508C53.3284 3.43911 50.3743 1.74246 47.4204 0.0453545C47.315 -0.0152493 47.1856 -0.0151015 47.0802 0.0456994L31.3975 9.10029C31.2918 9.16119 31.2268 9.27397 31.2271 9.39582C31.2273 9.51777 31.2923 9.63031 31.3982 9.69111C31.9757 10.023 32.5534 10.3545 33.131 10.6863L31.3972 11.6872C31.2916 11.7481 31.2266 11.8609 31.2268 11.9828C31.2271 12.1047 31.2923 12.2173 31.3979 12.278L33.1309 13.2733L31.3972 14.2741C31.2916 14.3351 31.2266 14.4479 31.2268 14.5697C31.2271 14.6917 31.2923 14.8043 31.3979 14.865L40.2601 19.9547C40.3127 19.9849 40.3713 20 40.4299 20C40.4887 20 40.5475 19.9848 40.6003 19.9543L56.2833 10.8998C56.3889 10.8389 56.4539 10.7261 56.4537 10.6042C56.4534 10.4823 56.3882 10.3697 56.2826 10.309L54.5496 9.31374L56.2833 8.31284C56.3889 8.25189 56.454 8.13916 56.4537 8.01731ZM47.2511 0.734365C49.977 2.3005 52.7031 3.8662 55.4294 5.43145L49.5266 8.83856C49.3389 8.73224 48.9943 8.53525 48.5464 8.2784L51.9021 6.34208C51.9827 6.29547 52.0408 6.21802 52.0628 6.12756C52.0849 6.03724 52.069 5.94166 52.0188 5.86322C51.9467 5.75024 51.8408 5.52551 51.9433 5.29014C52.0126 5.1309 51.9509 4.94499 51.8004 4.85857L48.1725 2.77351C48.0846 2.7231 47.9788 2.71423 47.8835 2.74976C47.4175 2.92379 46.7814 2.89624 46.2636 2.67994C46.1659 2.63934 46.0538 2.64599 45.9617 2.69936L42.4107 4.74988C42.2799 4.67459 42.1545 4.60236 42.0387 4.5357L41.3512 4.13995L47.2511 0.734365ZM51.2889 5.90864L47.8623 7.8859C46.466 7.08421 44.5426 5.97723 43.0937 5.14311L46.1622 3.37097C46.7492 3.57614 47.4131 3.60191 47.9649 3.44064L51.2323 5.31852C51.2034 5.51255 51.2227 5.71343 51.2889 5.90864ZM38.1474 5.9894C38.4767 6.1786 38.8061 6.36761 39.1355 6.55681L35.7855 8.49204C35.7049 8.53855 35.6468 8.616 35.6248 8.70642C35.6026 8.79688 35.6186 8.89232 35.6688 8.97076C35.7409 9.08374 35.8468 9.30846 35.7444 9.54359C35.6752 9.70283 35.7369 9.88873 35.8874 9.97515L39.5141 12.057C39.6018 12.1075 39.7081 12.1162 39.8031 12.0807C40.2687 11.9068 40.9048 11.9341 41.4233 12.1502C41.4652 12.1678 41.5099 12.1765 41.5545 12.1765C41.6135 12.1765 41.6725 12.1612 41.7249 12.1308L42.2837 11.808C43.2806 11.2323 44.2774 10.6567 45.2745 10.0816L46.3268 10.6856L40.4294 14.0917C37.703 12.5266 34.9765 10.9609 32.2508 9.39469L38.1474 5.9894ZM36.3987 8.92518L39.819 6.9493C41.2616 7.7778 42.7043 8.6063 44.147 9.43445L44.5908 9.68918C43.708 10.1985 42.8254 10.708 41.9429 11.2176L41.5245 11.4593C40.9371 11.2541 40.2737 11.2289 39.7217 11.3899L36.4556 9.51516C36.4842 9.32123 36.4649 9.12035 36.3987 8.92518ZM33.8145 11.0789C35.963 12.3131 38.1113 13.5472 40.2601 14.7807C40.3127 14.8109 40.3713 14.826 40.4299 14.826C40.4887 14.826 40.5478 14.8107 40.6003 14.7802L46.6701 11.2747L46.6744 13.0733L40.4295 16.6787L32.2509 11.9816L33.8145 11.0789ZM40.4295 19.2657L32.2509 14.5686L33.8147 13.666L40.2601 17.3678C40.3127 17.398 40.3713 17.4131 40.4299 17.4131C40.4887 17.4131 40.5475 17.3978 40.6003 17.3673L46.6763 13.8594L46.6807 15.6567L40.4295 19.2657ZM47.3616 15.2636L47.3505 10.6837C47.3503 10.5619 47.285 10.4494 47.1794 10.3889C47.1794 10.3889 40.7151 6.67831 38.8299 5.59523L40.6689 4.53387C40.6689 4.53387 48.6218 9.11276 49.1895 9.42238L49.1991 14.2026L47.3616 15.2636ZM55.4297 10.6054L49.8801 13.8095L49.8765 12.0118L53.8669 9.70796L55.4297 10.6054ZM49.8749 11.2255L49.8713 9.42701L53.8667 7.12077L55.4297 8.01839L49.8749 11.2255ZM39.438 10.0546C39.3439 9.89159 39.3996 9.68307 39.5628 9.58902L41.0562 8.72667C41.2189 8.63236 41.4278 8.68814 41.5219 8.85142C41.616 9.01446 41.5602 9.22298 41.3971 9.31704L39.9036 10.1794C39.8499 10.2105 39.7913 10.2251 39.7334 10.2251C39.6158 10.2251 39.501 10.1641 39.438 10.0546ZM48.4394 4.85714C48.5335 5.02018 48.4777 5.2287 48.3146 5.32276L47.0011 6.08114C46.9474 6.11223 46.8888 6.12687 46.8309 6.12687C46.7133 6.12687 46.5985 6.06582 46.5355 5.95644C46.4414 5.7934 46.4971 5.58488 46.6603 5.49082L47.9737 4.73244C48.1366 4.63823 48.3452 4.69381 48.4394 4.85714Z" fill="#B0B1FF"/>
<path d="M87.6808 8.01731C87.6805 7.89536 87.6153 7.78273 87.5097 7.72203L85.7766 6.7267L87.5104 5.72599C87.616 5.66495 87.681 5.55221 87.6808 5.43027C87.6805 5.30832 87.6153 5.19579 87.5097 5.13508C84.5554 3.43911 81.6013 1.74246 78.6475 0.0453545C78.542 -0.0152493 78.4126 -0.0151015 78.3073 0.0456994L62.6245 9.10029C62.5189 9.16119 62.4539 9.27397 62.4541 9.39582C62.4544 9.51777 62.5193 9.63031 62.6252 9.69111C63.2028 10.023 63.7805 10.3545 64.3581 10.6863L62.6243 11.6872C62.5186 11.7481 62.4536 11.8609 62.4539 11.9828C62.4541 12.1047 62.5193 12.2173 62.625 12.278L64.3579 13.2733L62.6243 14.2741C62.5186 14.3351 62.4536 14.4479 62.4539 14.5697C62.4541 14.6917 62.5193 14.8043 62.625 14.865L71.4872 19.9547C71.5398 19.9849 71.5984 20 71.657 20C71.7158 20 71.7746 19.9848 71.8274 19.9543L87.5103 10.8998C87.6159 10.8389 87.681 10.7261 87.6807 10.6042C87.6805 10.4823 87.6153 10.3697 87.5096 10.309L85.7766 9.31374L87.5103 8.31284C87.616 8.25189 87.681 8.13916 87.6808 8.01731ZM78.4781 0.734365C81.204 2.3005 83.9301 3.8662 86.6565 5.43145L80.7537 8.83856C80.5659 8.73224 80.2214 8.53525 79.7734 8.2784L83.1291 6.34208C83.2097 6.29547 83.2678 6.21802 83.2898 6.12756C83.312 6.03724 83.296 5.94166 83.2459 5.86322C83.1737 5.75024 83.0679 5.52551 83.1704 5.29014C83.2396 5.1309 83.1779 4.94499 83.0275 4.85857L79.3996 2.77351C79.3117 2.7231 79.2058 2.71423 79.1106 2.74976C78.6445 2.92379 78.0084 2.89624 77.4906 2.67994C77.393 2.63934 77.2809 2.64599 77.1888 2.69936L73.6377 4.74988C73.507 4.67459 73.3815 4.60236 73.2657 4.5357L72.5782 4.13995L78.4781 0.734365ZM82.516 5.90864L79.0893 7.8859C77.693 7.08421 75.7696 5.97723 74.3207 5.14311L77.3893 3.37097C77.9763 3.57614 78.6401 3.60191 79.1919 3.44064L82.4594 5.31852C82.4305 5.51255 82.4498 5.71343 82.516 5.90864ZM69.3745 5.9894C69.7038 6.1786 70.0332 6.36761 70.3625 6.55681L67.0125 8.49204C66.932 8.53855 66.8738 8.616 66.8519 8.70642C66.8297 8.79688 66.8457 8.89232 66.8958 8.97076C66.968 9.08374 67.0738 9.30846 66.9715 9.54359C66.9023 9.70283 66.964 9.88873 67.1144 9.97515L70.7412 12.057C70.8289 12.1075 70.9352 12.1162 71.0302 12.0807C71.4958 11.9068 72.1319 11.9341 72.6504 12.1502C72.6923 12.1678 72.7369 12.1765 72.7815 12.1765C72.8406 12.1765 72.8996 12.1612 72.952 12.1308L73.5108 11.808C74.5077 11.2323 75.5045 10.6567 76.5015 10.0816L77.5538 10.6856L71.6564 14.0917C68.9301 12.5266 66.2035 10.9609 63.4778 9.39469L69.3745 5.9894ZM67.6258 8.92518L71.046 6.9493C72.4887 7.7778 73.9313 8.6063 75.374 9.43445L75.8178 9.68918C74.935 10.1985 74.0524 10.708 73.1699 11.2176L72.7516 11.4593C72.1641 11.2541 71.5007 11.2289 70.9487 11.3899L67.6826 9.51516C67.7113 9.32123 67.6919 9.12035 67.6258 8.92518ZM65.0416 11.0789C67.19 12.3131 69.3384 13.5472 71.4872 14.7807C71.5398 14.8109 71.5984 14.826 71.657 14.826C71.7158 14.826 71.7748 14.8107 71.8274 14.7802L77.8971 11.2747L77.9015 13.0733L71.6565 16.6787L63.4779 11.9816L65.0416 11.0789ZM71.6565 19.2657L63.4779 14.5686L65.0417 13.666L71.4872 17.3678C71.5398 17.398 71.5984 17.4131 71.657 17.4131C71.7158 17.4131 71.7746 17.3978 71.8274 17.3673L77.9034 13.8594L77.9078 15.6567L71.6565 19.2657ZM78.5886 15.2636L78.5776 10.6837C78.5774 10.5619 78.5121 10.4494 78.4064 10.3889C78.4064 10.3889 71.9421 6.67831 70.057 5.59523L71.896 4.53387C71.896 4.53387 79.8489 9.11276 80.4166 9.42238L80.4261 14.2026L78.5886 15.2636ZM86.6567 10.6054L81.1071 13.8095L81.1036 12.0118L85.094 9.70796L86.6567 10.6054ZM81.1019 11.2255L81.0983 9.42701L85.0938 7.12077L86.6567 8.01839L81.1019 11.2255ZM70.6651 10.0546C70.571 9.89159 70.6267 9.68307 70.7898 9.58902L72.2833 8.72667C72.446 8.63236 72.6548 8.68814 72.7489 8.85142C72.843 9.01446 72.7873 9.22298 72.6242 9.31704L71.1307 10.1794C71.077 10.2105 71.0184 10.2251 70.9605 10.2251C70.8428 10.2251 70.7281 10.1641 70.6651 10.0546ZM79.6664 4.85714C79.7605 5.02018 79.7048 5.2287 79.5417 5.32276L78.2282 6.08114C78.1745 6.11223 78.1159 6.12687 78.0579 6.12687C77.9403 6.12687 77.8256 6.06582 77.7626 5.95644C77.6685 5.7934 77.7242 5.58488 77.8873 5.49082L79.2008 4.73244C79.3637 4.63823 79.5723 4.69381 79.6664 4.85714Z" fill="#B0B1FF"/>
<path d="M118.908 8.01731C118.907 7.89536 118.842 7.78273 118.736 7.72203L117.003 6.7267L118.737 5.72599C118.843 5.66495 118.908 5.55221 118.908 5.43027C118.907 5.30832 118.842 5.19579 118.736 5.13508C115.782 3.43911 112.828 1.74246 109.874 0.0453545C109.769 -0.0152493 109.639 -0.0151015 109.534 0.0456994L93.8513 9.10029C93.7457 9.16119 93.6807 9.27397 93.6809 9.39582C93.6812 9.51777 93.7461 9.63031 93.852 9.69111C94.4296 10.023 95.0073 10.3545 95.5849 10.6863L93.8511 11.6872C93.7455 11.7481 93.6804 11.8609 93.6807 11.9828C93.6809 12.1047 93.7461 12.2173 93.8518 12.278L95.5848 13.2733L93.8511 14.2741C93.7455 14.3351 93.6804 14.4479 93.6807 14.5697C93.6809 14.6917 93.7461 14.8043 93.8518 14.865L102.714 19.9547C102.767 19.9849 102.825 20 102.884 20C102.943 20 103.001 19.9848 103.054 19.9543L118.737 10.8998C118.843 10.8389 118.908 10.7261 118.908 10.6042C118.907 10.4823 118.842 10.3697 118.736 10.309L117.003 9.31374L118.737 8.31284C118.843 8.25189 118.908 8.13916 118.908 8.01731ZM109.705 0.734365C112.431 2.3005 115.157 3.8662 117.883 5.43145L111.98 8.83856C111.793 8.73224 111.448 8.53525 111 8.2784L114.356 6.34208C114.437 6.29547 114.495 6.21802 114.517 6.12756C114.539 6.03724 114.523 5.94166 114.473 5.86322C114.401 5.75024 114.295 5.52551 114.397 5.29014C114.466 5.1309 114.405 4.94499 114.254 4.85857L110.626 2.77351C110.538 2.7231 110.433 2.71423 110.337 2.74976C109.871 2.92379 109.235 2.89624 108.717 2.67994C108.62 2.63934 108.508 2.64599 108.416 2.69936L104.865 4.74988C104.734 4.67459 104.608 4.60236 104.493 4.5357L103.805 4.13995L109.705 0.734365ZM113.743 5.90864L110.316 7.8859C108.92 7.08421 106.996 5.97723 105.548 5.14311L108.616 3.37097C109.203 3.57614 109.867 3.60191 110.419 3.44064L113.686 5.31852C113.657 5.51255 113.677 5.71343 113.743 5.90864ZM100.601 5.9894C100.931 6.1786 101.26 6.36761 101.589 6.55681L98.2393 8.49204C98.1588 8.53855 98.1006 8.616 98.0787 8.70642C98.0565 8.79688 98.0725 8.89232 98.1226 8.97076C98.1948 9.08374 98.3006 9.30846 98.1983 9.54359C98.1291 9.70283 98.1908 9.88873 98.3412 9.97515L101.968 12.057C102.056 12.1075 102.162 12.1162 102.257 12.0807C102.723 11.9068 103.359 11.9341 103.877 12.1502C103.919 12.1678 103.964 12.1765 104.008 12.1765C104.067 12.1765 104.126 12.1612 104.179 12.1308L104.738 11.808C105.735 11.2323 106.731 10.6567 107.728 10.0816L108.781 10.6856L102.883 14.0917C100.157 12.5266 97.4303 10.9609 94.7046 9.39469L100.601 5.9894ZM98.8526 8.92518L102.273 6.9493C103.715 7.7778 105.158 8.6063 106.601 9.43445L107.045 9.68918C106.162 10.1985 105.279 10.708 104.397 11.2176L103.978 11.4593C103.391 11.2541 102.728 11.2289 102.176 11.3899L98.9094 9.51516C98.9381 9.32123 98.9188 9.12035 98.8526 8.92518ZM96.2684 11.0789C98.4168 12.3131 100.565 13.5472 102.714 14.7807C102.767 14.8109 102.825 14.826 102.884 14.826C102.943 14.826 103.002 14.8107 103.054 14.7802L109.124 11.2747L109.128 13.0733L102.883 16.6787L94.7047 11.9816L96.2684 11.0789ZM102.883 19.2657L94.7047 14.5686L96.2685 13.666L102.714 17.3678C102.767 17.398 102.825 17.4131 102.884 17.4131C102.943 17.4131 103.001 17.3978 103.054 17.3673L109.13 13.8594L109.135 15.6567L102.883 19.2657ZM109.815 15.2636L109.804 10.6837C109.804 10.5619 109.739 10.4494 109.633 10.3889C109.633 10.3889 103.169 6.67831 101.284 5.59523L103.123 4.53387C103.123 4.53387 111.076 9.11276 111.643 9.42238L111.653 14.2026L109.815 15.2636ZM117.884 10.6054L112.334 13.8095L112.33 12.0118L116.321 9.70796L117.884 10.6054ZM112.329 11.2255L112.325 9.42701L116.321 7.12077L117.884 8.01839L112.329 11.2255ZM101.892 10.0546C101.798 9.89159 101.853 9.68307 102.017 9.58902L103.51 8.72667C103.673 8.63236 103.882 8.68814 103.976 8.85142C104.07 9.01446 104.014 9.22298 103.851 9.31704L102.357 10.1794C102.304 10.2105 102.245 10.2251 102.187 10.2251C102.07 10.2251 101.955 10.1641 101.892 10.0546ZM110.893 4.85714C110.987 5.02018 110.932 5.2287 110.768 5.32276L109.455 6.08114C109.401 6.11223 109.343 6.12687 109.285 6.12687C109.167 6.12687 109.052 6.06582 108.989 5.95644C108.895 5.7934 108.951 5.58488 109.114 5.49082L110.428 4.73244C110.59 4.63823 110.799 4.69381 110.893 4.85714Z" fill="#B0B1FF"/>
<path d="M150.135 8.01731C150.134 7.89536 150.069 7.78273 149.964 7.72203L148.23 6.7267L149.964 5.72599C150.07 5.66495 150.135 5.55221 150.135 5.43027C150.134 5.30832 150.069 5.19579 149.964 5.13508C147.009 3.43911 144.055 1.74246 141.101 0.0453545C140.996 -0.0152493 140.867 -0.0151015 140.761 0.0456994L125.078 9.10029C124.973 9.16119 124.908 9.27397 124.908 9.39582C124.908 9.51777 124.973 9.63031 125.079 9.69111C125.657 10.023 126.234 10.3545 126.812 10.6863L125.078 11.6872C124.973 11.7481 124.907 11.8609 124.908 11.9828C124.908 12.1047 124.973 12.2173 125.079 12.278L126.812 13.2733L125.078 14.2741C124.973 14.3351 124.907 14.4479 124.908 14.5697C124.908 14.6917 124.973 14.8043 125.079 14.865L133.941 19.9547C133.994 19.9849 134.052 20 134.111 20C134.17 20 134.228 19.9848 134.281 19.9543L149.964 10.8998C150.07 10.8389 150.135 10.7261 150.135 10.6042C150.134 10.4823 150.069 10.3697 149.963 10.309L148.23 9.31374L149.964 8.31284C150.07 8.25189 150.135 8.13916 150.135 8.01731ZM140.932 0.734365C143.658 2.3005 146.384 3.8662 149.11 5.43145L143.208 8.83856C143.02 8.73224 142.675 8.53525 142.227 8.2784L145.583 6.34208C145.664 6.29547 145.722 6.21802 145.744 6.12756C145.766 6.03724 145.75 5.94166 145.7 5.86322C145.628 5.75024 145.522 5.52551 145.624 5.29014C145.693 5.1309 145.632 4.94499 145.481 4.85857L141.853 2.77351C141.766 2.7231 141.66 2.71423 141.564 2.74976C141.098 2.92379 140.462 2.89624 139.944 2.67994C139.847 2.63934 139.735 2.64599 139.643 2.69936L136.092 4.74988C135.961 4.67459 135.835 4.60236 135.72 4.5357L135.032 4.13995L140.932 0.734365ZM144.97 5.90864L141.543 7.8859C140.147 7.08421 138.223 5.97723 136.775 5.14311L139.843 3.37097C140.43 3.57614 141.094 3.60191 141.646 3.44064L144.913 5.31852C144.884 5.51255 144.904 5.71343 144.97 5.90864ZM131.828 5.9894C132.158 6.1786 132.487 6.36761 132.816 6.55681L129.466 8.49204C129.386 8.53855 129.328 8.616 129.306 8.70642C129.284 8.79688 129.3 8.89232 129.35 8.97076C129.422 9.08374 129.528 9.30846 129.425 9.54359C129.356 9.70283 129.418 9.88873 129.568 9.97515L133.195 12.057C133.283 12.1075 133.389 12.1162 133.484 12.0807C133.95 11.9068 134.586 11.9341 135.104 12.1502C135.146 12.1678 135.191 12.1765 135.235 12.1765C135.294 12.1765 135.353 12.1612 135.406 12.1308L135.965 11.808C136.962 11.2323 137.958 10.6567 138.955 10.0816L140.008 10.6856L134.11 14.0917C131.384 12.5266 128.657 10.9609 125.932 9.39469L131.828 5.9894ZM130.08 8.92518L133.5 6.9493C134.943 7.7778 136.385 8.6063 137.828 9.43445L138.272 9.68918C137.389 10.1985 136.506 10.708 135.624 11.2176L135.205 11.4593C134.618 11.2541 133.955 11.2289 133.403 11.3899L130.136 9.51516C130.165 9.32123 130.146 9.12035 130.08 8.92518ZM127.495 11.0789C129.644 12.3131 131.792 13.5472 133.941 14.7807C133.994 14.8109 134.052 14.826 134.111 14.826C134.17 14.826 134.229 14.8107 134.281 14.7802L140.351 11.2747L140.355 13.0733L134.11 16.6787L125.932 11.9816L127.495 11.0789ZM134.11 19.2657L125.932 14.5686L127.496 13.666L133.941 17.3678C133.994 17.398 134.052 17.4131 134.111 17.4131C134.17 17.4131 134.228 17.3978 134.281 17.3673L140.357 13.8594L140.362 15.6567L134.11 19.2657ZM141.043 15.2636L141.031 10.6837C141.031 10.5619 140.966 10.4494 140.86 10.3889C140.86 10.3889 134.396 6.67831 132.511 5.59523L134.35 4.53387C134.35 4.53387 142.303 9.11276 142.87 9.42238L142.88 14.2026L141.043 15.2636ZM149.111 10.6054L143.561 13.8095L143.557 12.0118L147.548 9.70796L149.111 10.6054ZM143.556 11.2255L143.552 9.42701L147.548 7.12077L149.111 8.01839L143.556 11.2255ZM133.119 10.0546C133.025 9.89159 133.081 9.68307 133.244 9.58902L134.737 8.72667C134.9 8.63236 135.109 8.68814 135.203 8.85142C135.297 9.01446 135.241 9.22298 135.078 9.31704L133.585 10.1794C133.531 10.2105 133.472 10.2251 133.414 10.2251C133.297 10.2251 133.182 10.1641 133.119 10.0546ZM142.12 4.85714C142.214 5.02018 142.159 5.2287 141.996 5.32276L140.682 6.08114C140.628 6.11223 140.57 6.12687 140.512 6.12687C140.394 6.12687 140.279 6.06582 140.216 5.95644C140.122 5.7934 140.178 5.58488 140.341 5.49082L141.655 4.73244C141.818 4.63823 142.026 4.69381 142.12 4.85714Z" fill="#B0B1FF"/>
<path d="M181.361 8.01731C181.361 7.89536 181.296 7.78273 181.19 7.72203L179.457 6.7267L181.191 5.72599C181.297 5.66495 181.362 5.55221 181.361 5.43027C181.361 5.30832 181.296 5.19579 181.19 5.13508C178.236 3.43911 175.282 1.74246 172.328 0.0453545C172.223 -0.0152493 172.093 -0.0151015 171.988 0.0456994L156.305 9.10029C156.2 9.16119 156.135 9.27397 156.135 9.39582C156.135 9.51777 156.2 9.63031 156.306 9.69111C156.883 10.023 157.461 10.3545 158.039 10.6863L156.305 11.6872C156.199 11.7481 156.134 11.8609 156.135 11.9828C156.135 12.1047 156.2 12.2173 156.306 12.278L158.039 13.2733L156.305 14.2741C156.199 14.3351 156.134 14.4479 156.135 14.5697C156.135 14.6917 156.2 14.8043 156.306 14.865L165.168 19.9547C165.22 19.9849 165.279 20 165.338 20C165.396 20 165.455 19.9848 165.508 19.9543L181.191 10.8998C181.297 10.8389 181.362 10.7261 181.361 10.6042C181.361 10.4823 181.296 10.3697 181.19 10.309L179.457 9.31374L181.191 8.31284C181.297 8.25189 181.362 8.13916 181.361 8.01731ZM172.159 0.734365C174.885 2.3005 177.611 3.8662 180.337 5.43145L174.434 8.83856C174.247 8.73224 173.902 8.53525 173.454 8.2784L176.81 6.34208C176.89 6.29547 176.949 6.21802 176.97 6.12756C176.993 6.03724 176.977 5.94166 176.927 5.86322C176.854 5.75024 176.749 5.52551 176.851 5.29014C176.92 5.1309 176.859 4.94499 176.708 4.85857L173.08 2.77351C172.992 2.7231 172.886 2.71423 172.791 2.74976C172.325 2.92379 171.689 2.89624 171.171 2.67994C171.074 2.63934 170.962 2.64599 170.869 2.69936L167.318 4.74988C167.188 4.67459 167.062 4.60236 166.946 4.5357L166.259 4.13995L172.159 0.734365ZM176.197 5.90864L172.77 7.8859C171.374 7.08421 169.45 5.97723 168.001 5.14311L171.07 3.37097C171.657 3.57614 172.321 3.60191 172.873 3.44064L176.14 5.31852C176.111 5.51255 176.13 5.71343 176.197 5.90864ZM163.055 5.9894C163.384 6.1786 163.714 6.36761 164.043 6.55681L160.693 8.49204C160.613 8.53855 160.555 8.616 160.533 8.70642C160.51 8.79688 160.526 8.89232 160.576 8.97076C160.649 9.08374 160.754 9.30846 160.652 9.54359C160.583 9.70283 160.645 9.88873 160.795 9.97515L164.422 12.057C164.51 12.1075 164.616 12.1162 164.711 12.0807C165.176 11.9068 165.813 11.9341 166.331 12.1502C166.373 12.1678 166.418 12.1765 166.462 12.1765C166.521 12.1765 166.58 12.1612 166.633 12.1308L167.191 11.808C168.188 11.2323 169.185 10.6567 170.182 10.0816L171.235 10.6856L165.337 14.0917C162.611 12.5266 159.884 10.9609 157.158 9.39469L163.055 5.9894ZM161.306 8.92518L164.727 6.9493C166.169 7.7778 167.612 8.6063 169.055 9.43445L169.498 9.68918C168.616 10.1985 167.733 10.708 166.851 11.2176L166.432 11.4593C165.845 11.2541 165.181 11.2289 164.629 11.3899L161.363 9.51516C161.392 9.32123 161.373 9.12035 161.306 8.92518ZM158.722 11.0789C160.871 12.3131 163.019 13.5472 165.168 14.7807C165.22 14.8109 165.279 14.826 165.338 14.826C165.396 14.826 165.455 14.8107 165.508 14.7802L171.578 11.2747L171.582 13.0733L165.337 16.6787L157.159 11.9816L158.722 11.0789ZM165.337 19.2657L157.159 14.5686L158.722 13.666L165.168 17.3678C165.22 17.398 165.279 17.4131 165.338 17.4131C165.396 17.4131 165.455 17.3978 165.508 17.3673L171.584 13.8594L171.588 15.6567L165.337 19.2657ZM172.269 15.2636L172.258 10.6837C172.258 10.5619 172.193 10.4494 172.087 10.3889C172.087 10.3889 165.623 6.67831 163.738 5.59523L165.577 4.53387C165.577 4.53387 173.53 9.11276 174.097 9.42238L174.107 14.2026L172.269 15.2636ZM180.337 10.6054L174.788 13.8095L174.784 12.0118L178.775 9.70796L180.337 10.6054ZM174.783 11.2255L174.779 9.42701L178.774 7.12077L180.337 8.01839L174.783 11.2255ZM164.346 10.0546C164.252 9.89159 164.307 9.68307 164.47 9.58902L165.964 8.72667C166.127 8.63236 166.336 8.68814 166.43 8.85142C166.524 9.01446 166.468 9.22298 166.305 9.31704L164.811 10.1794C164.758 10.2105 164.699 10.2251 164.641 10.2251C164.524 10.2251 164.409 10.1641 164.346 10.0546ZM173.347 4.85714C173.441 5.02018 173.385 5.2287 173.222 5.32276L171.909 6.08114C171.855 6.11223 171.797 6.12687 171.739 6.12687C171.621 6.12687 171.506 6.06582 171.443 5.95644C171.349 5.7934 171.405 5.58488 171.568 5.49082L172.881 4.73244C173.044 4.63823 173.253 4.69381 173.347 4.85714Z" fill="#B0B1FF"/>
<path d="M212.588 8.01731C212.588 7.89536 212.523 7.78273 212.417 7.72203L210.684 6.7267L212.418 5.72599C212.524 5.66495 212.589 5.55221 212.588 5.43027C212.588 5.30832 212.523 5.19579 212.417 5.13508C209.463 3.43911 206.509 1.74246 203.555 0.0453545C203.45 -0.0152493 203.32 -0.0151015 203.215 0.0456994L187.532 9.10029C187.427 9.16119 187.362 9.27397 187.362 9.39582C187.362 9.51777 187.427 9.63031 187.533 9.69111C188.11 10.023 188.688 10.3545 189.266 10.6863L187.532 11.6872C187.426 11.7481 187.361 11.8609 187.362 11.9828C187.362 12.1047 187.427 12.2173 187.533 12.278L189.266 13.2733L187.532 14.2741C187.426 14.3351 187.361 14.4479 187.362 14.5697C187.362 14.6917 187.427 14.8043 187.533 14.865L196.395 19.9547C196.448 19.9849 196.506 20 196.565 20C196.624 20 196.682 19.9848 196.735 19.9543L212.418 10.8998C212.524 10.8389 212.589 10.7261 212.588 10.6042C212.588 10.4823 212.523 10.3697 212.417 10.309L210.684 9.31374L212.418 8.31284C212.524 8.25189 212.589 8.13916 212.588 8.01731ZM203.386 0.734365C206.112 2.3005 208.838 3.8662 211.564 5.43145L205.661 8.83856C205.474 8.73224 205.129 8.53525 204.681 8.2784L208.037 6.34208C208.117 6.29547 208.176 6.21802 208.198 6.12756C208.22 6.03724 208.204 5.94166 208.154 5.86322C208.081 5.75024 207.976 5.52551 208.078 5.29014C208.147 5.1309 208.086 4.94499 207.935 4.85857L204.307 2.77351C204.219 2.7231 204.114 2.71423 204.018 2.74976C203.552 2.92379 202.916 2.89624 202.398 2.67994C202.301 2.63934 202.189 2.64599 202.097 2.69936L198.545 4.74988C198.415 4.67459 198.289 4.60236 198.173 4.5357L197.486 4.13995L203.386 0.734365ZM207.424 5.90864L203.997 7.8859C202.601 7.08421 200.677 5.97723 199.228 5.14311L202.297 3.37097C202.884 3.57614 203.548 3.60191 204.1 3.44064L207.367 5.31852C207.338 5.51255 207.358 5.71343 207.424 5.90864ZM194.282 5.9894C194.612 6.1786 194.941 6.36761 195.27 6.55681L191.92 8.49204C191.84 8.53855 191.782 8.616 191.76 8.70642C191.737 8.79688 191.753 8.89232 191.804 8.97076C191.876 9.08374 191.982 9.30846 191.879 9.54359C191.81 9.70283 191.872 9.88873 192.022 9.97515L195.649 12.057C195.737 12.1075 195.843 12.1162 195.938 12.0807C196.404 11.9068 197.04 11.9341 197.558 12.1502C197.6 12.1678 197.645 12.1765 197.689 12.1765C197.748 12.1765 197.807 12.1612 197.86 12.1308L198.419 11.808C199.415 11.2323 200.412 10.6567 201.409 10.0816L202.462 10.6856L196.564 14.0917C193.838 12.5266 191.111 10.9609 188.386 9.39469L194.282 5.9894ZM192.533 8.92518L195.954 6.9493C197.396 7.7778 198.839 8.6063 200.282 9.43445L200.726 9.68918C199.843 10.1985 198.96 10.708 198.078 11.2176L197.659 11.4593C197.072 11.2541 196.408 11.2289 195.856 11.3899L192.59 9.51516C192.619 9.32123 192.6 9.12035 192.533 8.92518ZM189.949 11.0789C192.098 12.3131 194.246 13.5472 196.395 14.7807C196.448 14.8109 196.506 14.826 196.565 14.826C196.624 14.826 196.683 14.8107 196.735 14.7802L202.805 11.2747L202.809 13.0733L196.564 16.6787L188.386 11.9816L189.949 11.0789ZM196.564 19.2657L188.386 14.5686L189.949 13.666L196.395 17.3678C196.448 17.398 196.506 17.4131 196.565 17.4131C196.624 17.4131 196.682 17.3978 196.735 17.3673L202.811 13.8594L202.815 15.6567L196.564 19.2657ZM203.496 15.2636L203.485 10.6837C203.485 10.5619 203.42 10.4494 203.314 10.3889C203.314 10.3889 196.85 6.67831 194.965 5.59523L196.804 4.53387C196.804 4.53387 204.757 9.11276 205.324 9.42238L205.334 14.2026L203.496 15.2636ZM211.564 10.6054L206.015 13.8095L206.011 12.0118L210.002 9.70796L211.564 10.6054ZM206.01 11.2255L206.006 9.42701L210.002 7.12077L211.564 8.01839L206.01 11.2255ZM195.573 10.0546C195.479 9.89159 195.534 9.68307 195.698 9.58902L197.191 8.72667C197.354 8.63236 197.563 8.68814 197.657 8.85142C197.751 9.01446 197.695 9.22298 197.532 9.31704L196.038 10.1794C195.985 10.2105 195.926 10.2251 195.868 10.2251C195.751 10.2251 195.636 10.1641 195.573 10.0546ZM204.574 4.85714C204.668 5.02018 204.613 5.2287 204.449 5.32276L203.136 6.08114C203.082 6.11223 203.024 6.12687 202.966 6.12687C202.848 6.12687 202.733 6.06582 202.67 5.95644C202.576 5.7934 202.632 5.58488 202.795 5.49082L204.109 4.73244C204.271 4.63823 204.48 4.69381 204.574 4.85714Z" fill="#B0B1FF"/>
<path d="M243.815 8.01731C243.815 7.89536 243.75 7.78273 243.644 7.72203L241.911 6.7267L243.645 5.72599C243.751 5.66495 243.816 5.55221 243.815 5.43027C243.815 5.30832 243.75 5.19579 243.644 5.13508C240.69 3.43911 237.736 1.74246 234.782 0.0453545C234.677 -0.0152493 234.547 -0.0151015 234.442 0.0456994L218.759 9.10029C218.653 9.16119 218.588 9.27397 218.589 9.39582C218.589 9.51777 218.654 9.63031 218.76 9.69111C219.337 10.023 219.915 10.3545 220.493 10.6863L218.759 11.6872C218.653 11.7481 218.588 11.8609 218.588 11.9828C218.589 12.1047 218.654 12.2173 218.759 12.278L220.492 13.2733L218.759 14.2741C218.653 14.3351 218.588 14.4479 218.588 14.5697C218.589 14.6917 218.654 14.8043 218.759 14.865L227.622 19.9547C227.674 19.9849 227.733 20 227.791 20C227.85 20 227.909 19.9848 227.962 19.9543L243.645 10.8998C243.75 10.8389 243.816 10.7261 243.815 10.6042C243.815 10.4823 243.75 10.3697 243.644 10.309L241.911 9.31374L243.645 8.31284C243.751 8.25189 243.816 8.13916 243.815 8.01731ZM234.613 0.734365C237.339 2.3005 240.065 3.8662 242.791 5.43145L236.888 8.83856C236.7 8.73224 236.356 8.53525 235.908 8.2784L239.264 6.34208C239.344 6.29547 239.402 6.21802 239.424 6.12756C239.447 6.03724 239.431 5.94166 239.38 5.86322C239.308 5.75024 239.202 5.52551 239.305 5.29014C239.374 5.1309 239.312 4.94499 239.162 4.85857L235.534 2.77351C235.446 2.7231 235.34 2.71423 235.245 2.74976C234.779 2.92379 234.143 2.89624 233.625 2.67994C233.527 2.63934 233.415 2.64599 233.323 2.69936L229.772 4.74988C229.642 4.67459 229.516 4.60236 229.4 4.5357L228.713 4.13995L234.613 0.734365ZM238.65 5.90864L235.224 7.8859C233.828 7.08421 231.904 5.97723 230.455 5.14311L233.524 3.37097C234.111 3.57614 234.775 3.60191 235.326 3.44064L238.594 5.31852C238.565 5.51255 238.584 5.71343 238.65 5.90864ZM225.509 5.9894C225.838 6.1786 226.168 6.36761 226.497 6.55681L223.147 8.49204C223.067 8.53855 223.008 8.616 222.986 8.70642C222.964 8.79688 222.98 8.89232 223.03 8.97076C223.102 9.08374 223.208 9.30846 223.106 9.54359C223.037 9.70283 223.098 9.88873 223.249 9.97515L226.876 12.057C226.963 12.1075 227.07 12.1162 227.165 12.0807C227.63 11.9068 228.266 11.9341 228.785 12.1502C228.827 12.1678 228.871 12.1765 228.916 12.1765C228.975 12.1765 229.034 12.1612 229.086 12.1308L229.645 11.808C230.642 11.2323 231.639 10.6567 232.636 10.0816L233.688 10.6856L227.791 14.0917C225.065 12.5266 222.338 10.9609 219.612 9.39469L225.509 5.9894ZM223.76 8.92518L227.181 6.9493C228.623 7.7778 230.066 8.6063 231.509 9.43445L231.952 9.68918C231.07 10.1985 230.187 10.708 229.304 11.2176L228.886 11.4593C228.299 11.2541 227.635 11.2289 227.083 11.3899L223.817 9.51516C223.846 9.32123 223.826 9.12035 223.76 8.92518ZM221.176 11.0789C223.325 12.3131 225.473 13.5472 227.622 14.7807C227.674 14.8109 227.733 14.826 227.791 14.826C227.85 14.826 227.909 14.8107 227.962 14.7802L234.032 11.2747L234.036 13.0733L227.791 16.6787L219.612 11.9816L221.176 11.0789ZM227.791 19.2657L219.612 14.5686L221.176 13.666L227.622 17.3678C227.674 17.398 227.733 17.4131 227.791 17.4131C227.85 17.4131 227.909 17.3978 227.962 17.3673L234.038 13.8594L234.042 15.6567L227.791 19.2657ZM234.723 15.2636L234.712 10.6837C234.712 10.5619 234.647 10.4494 234.541 10.3889C234.541 10.3889 228.077 6.67831 226.191 5.59523L228.03 4.53387C228.03 4.53387 235.983 9.11276 236.551 9.42238L236.561 14.2026L234.723 15.2636ZM242.791 10.6054L237.242 13.8095L237.238 12.0118L241.229 9.70796L242.791 10.6054ZM237.236 11.2255L237.233 9.42701L241.228 7.12077L242.791 8.01839L237.236 11.2255ZM226.8 10.0546C226.705 9.89159 226.761 9.68307 226.924 9.58902L228.418 8.72667C228.581 8.63236 228.789 8.68814 228.883 8.85142C228.978 9.01446 228.922 9.22298 228.759 9.31704L227.265 10.1794C227.212 10.2105 227.153 10.2251 227.095 10.2251C226.977 10.2251 226.863 10.1641 226.8 10.0546ZM235.801 4.85714C235.895 5.02018 235.839 5.2287 235.676 5.32276L234.363 6.08114C234.309 6.11223 234.25 6.12687 234.192 6.12687C234.075 6.12687 233.96 6.06582 233.897 5.95644C233.803 5.7934 233.859 5.58488 234.022 5.49082L235.335 4.73244C235.498 4.63823 235.707 4.69381 235.801 4.85714Z" fill="#B0B1FF"/>
</svg>
