<svg width="18" height="14" viewBox="0 0 18 14" fill="none" xmlns="http://www.w3.org/2000/svg">
<path d="M17.5164 0.290993C17.4459 0.102876 17.3753 0.0558473 17.2813 0.0323327C17.0226 -0.0617257 16.6229 0.0793611 16.6229 0.0793611C16.6229 0.0793611 1.78515 5.41717 0.938628 6.00504C0.750511 6.12261 0.703482 6.21667 0.656453 6.28721C0.515366 6.71048 0.962144 6.89859 0.962144 6.89859L4.79502 8.14487C4.79502 8.14487 4.93611 8.16838 4.98314 8.14487C5.85318 7.60403 13.7306 2.61894 14.1773 2.45433C14.2479 2.43082 14.2949 2.45433 14.2949 2.50136C14.1068 3.13626 7.26405 9.22654 7.26405 9.22654C7.26405 9.22654 7.24054 9.25005 7.21702 9.29708L6.8643 13.0829C6.8643 13.0829 6.72322 14.2351 7.87543 13.0829C8.69844 12.2599 9.49794 11.578 9.87417 11.2488C11.191 12.1659 12.6019 13.1535 13.2132 13.6943C13.5189 13.953 13.7776 14 13.9892 14C14.5771 13.9765 14.7417 13.3416 14.7417 13.3416C14.7417 13.3416 17.4459 2.45434 17.5399 0.996431C17.5399 0.855343 17.5634 0.761284 17.5634 0.667226C17.5399 0.502624 17.5399 0.361537 17.5164 0.290993Z" fill="#5D5FEF"/>
</svg>
