<svg width="30" height="30" viewBox="0 0 30 30" fill="none" xmlns="http://www.w3.org/2000/svg">
<circle cx="15" cy="15" r="15" fill="#EBEBFF"/>
<path d="M19.8074 18.4058C19.5959 18.9997 18.5791 19.5414 18.0921 19.615C17.5579 19.7067 17.0096 19.6725 16.4909 19.5152C15.9987 19.3627 15.515 19.1843 15.0417 18.9807C12.4901 17.876 10.8247 15.3031 10.6988 15.1415C10.5729 14.98 9.66061 13.7636 9.66061 12.5139C9.65357 12.1184 9.72894 11.7257 9.88191 11.3609C10.0349 10.996 10.2621 10.667 10.5491 10.3948C10.6339 10.2979 10.7379 10.2196 10.8544 10.1648C10.9709 10.11 11.0975 10.0799 11.2262 10.0764C11.3949 10.0764 11.5659 10.0764 11.7132 10.0764C11.8605 10.0764 12.0791 10.017 12.2858 10.5136C12.4925 11.0101 12.9985 12.274 13.0698 12.3999C13.1093 12.4666 13.132 12.5419 13.1357 12.6194C13.1394 12.6968 13.1241 12.774 13.0912 12.8442C13.027 12.9965 12.9414 13.1389 12.837 13.267C12.7087 13.4143 12.5709 13.5973 12.4569 13.7113C12.3428 13.8254 12.1979 13.975 12.3452 14.2292C12.7305 14.8834 13.2109 15.4767 13.7706 15.9896C14.3732 16.5256 15.0646 16.9525 15.8138 17.2512C16.068 17.3795 16.2153 17.3581 16.3649 17.187C16.5146 17.016 16.9993 16.4458 17.1703 16.1916C17.3414 15.9374 17.51 15.9801 17.7429 16.0633C17.9757 16.1464 19.2253 16.7618 19.4795 16.8901C19.7337 17.0183 19.9024 17.0801 19.9666 17.187C20.0307 17.2939 20.0188 17.8118 19.805 18.4058H19.8074Z" fill="#5D5FEF"/>
<path fill-rule="evenodd" clip-rule="evenodd" d="M22.0268 7.58403C20.2831 5.83583 17.9631 4.7815 15.4993 4.61765C13.0356 4.4538 10.5964 5.19161 8.63651 6.6935C6.67664 8.1954 5.32991 10.3588 4.84745 12.7804C4.36498 15.202 4.77973 17.7164 6.01434 19.8547L4.57227 25.1241L9.9652 23.6987C11.4567 24.5107 13.1278 24.9362 14.826 24.9364C16.8378 24.9366 18.8045 24.3402 20.4775 23.2227C22.1504 22.1052 23.4544 20.5167 24.2246 18.6582C24.9948 16.7996 25.1967 14.7544 24.8047 12.7811C24.4126 10.8079 23.4443 8.99513 22.0221 7.57215L22.0268 7.58403ZM14.8307 23.2306C13.316 23.2278 11.8299 22.8175 10.5282 22.0428L10.2194 21.8598L7.01928 22.6985L7.87454 19.5791L7.67261 19.2584C6.67606 17.6707 6.2354 15.7967 6.41992 13.9313C6.60444 12.0658 7.40367 10.3145 8.69196 8.95273C9.98026 7.59097 11.6846 6.69594 13.537 6.40835C15.3894 6.12076 17.2848 6.45692 18.9253 7.36397C20.5659 8.27103 21.8585 9.69754 22.5999 11.4193C23.3413 13.141 23.4896 15.0603 23.0214 16.8755C22.5531 18.6907 21.4949 20.2988 20.0132 21.447C18.5314 22.5952 16.7101 23.2185 14.8355 23.2188L14.8307 23.2306Z" fill="#5D5FEF"/>
</svg>
